<svg width="260.4650146484375px" height="122.021240234375px" xmlns="http://www.w3.org/2000/svg" viewBox="119.76749267578126 13.9893798828125 260.4650146484375 122.021240234375" style="background: rgba(0, 0, 0, 0);" preserveAspectRatio="xMidYMid"><defs><linearGradient id="editing-shiny-gradient" x1="0.04322727117869957" x2="0.9567727288213004" y1="0.2966316784620999" y2="0.7033683215379001" gradientUnits="objectBoundingBox"><stop offset="0.0" stop-color="#ffb200"></stop><stop offset="0.5" stop-color="#e10057"></stop><stop offset="1.0" stop-color="#5a1a80"></stop></linearGradient><linearGradient id="editing-shiny-gradient2" x1="0" x2="0" y1="0" y2="1"><stop offset="0.2" stop-color="#fff" stop-opacity="0.8"></stop><stop offset="0.8" stop-color="#fff" stop-opacity="0"></stop></linearGradient><filter id="editing-shiny2" x="-100%" y="-100%" width="300%" height="300%"><feMorphology operator="erode" radius="2"></feMorphology></filter><filter id="editing-shiny" x="-100%" y="-100%" width="300%" height="300%"><feFlood flood-color="#fff" result="flood"></feFlood><feConvolveMatrix in="SourceGraphic" result="conv" order="8,8" divisor="1" kernelMatrix="0 0 0 0 0 0 0 0 0 0 0 1 1 0 0 0 0 0 0 1 1 0 0 0 0 0 1 0 0 1 0 0 0 0 1 0 0 1 0 0 0 1 0 0 0 0 1 0 0 1 1 0 0 1 1 0 0 0 0 1 1 0 0 0 "></feConvolveMatrix><feOffset dx="0" dy="4" in="conv" result="offset"></feOffset><feComposite operator="in" in="flood" in2="offset" result="comp"></feComposite><feGaussianBlur in="offset" stdDeviation="3" result="shadow"></feGaussianBlur><feColorMatrix in="shadow" type="matrix" values="0.7 0 0 0 0  0 0.7 0 0 0  0 0 0.7 0 0  0 0 0 0.3 0" result="dark-shadow"></feColorMatrix><feOffset dx="0" dy="4" in="dark-shadow" result="offset-shadow"></feOffset><feOffset dx="0" dy="2" in="conv" result="offset-2"></feOffset><feComposite operator="out" in="offset" in2="offset-2" result="edge-diff"></feComposite><feGaussianBlur in="edge-diff" stdDeviation="1" result="edge-blur"></feGaussianBlur><feColorMatrix in="edge-blur" result="edge-shadow" type="matrix" values="0 0 0 0 0  0 0 0 0 0  0 0 0 0 0  0 0 0 0.5 0"></feColorMatrix><feComposite operator="in" in="edge-shadow" in2="offset" result="edge-shadow-in"></feComposite><feOffset dx="0" dy="1" in="edge-shadow-in" result="edge-shadow-final"></feOffset><feMerge result="out"><feMergeNode in="offset-shadow"></feMergeNode><feMergeNode in="comp"></feMergeNode><feMergeNode in="edge-shadow-final"></feMergeNode><feMergeNode in="SourceGraphic"></feMergeNode></feMerge></filter></defs><g filter="url(#editing-shiny)"><g transform="translate(162.53500247001648, 104.78218841552734)"><path d="M21.44-7.23L21.44-7.23L21.44-7.23Q18.11-3.78 12.03-3.78L12.03-3.78L12.03-3.78Q4.42-3.78 2.82-9.34L2.82-9.34L2.82-9.34Q2.30-11.01 2.30-12.86L2.30-12.86L2.30-12.86Q2.30-14.72 2.69-16.64L2.69-16.64L5.70-32.64L18.69-33.92L15.17-15.30L15.17-15.30Q15.04-14.46 14.85-13.57L14.85-13.57L14.85-13.57Q14.66-12.67 14.66-11.74L14.66-11.74L14.66-11.74Q14.66-10.82 14.98-10.21L14.98-10.21L14.98-10.21Q15.30-9.60 15.74-9.22L15.74-9.22L15.74-9.22Q16.51-8.70 17.89-8.70L17.89-8.70L17.89-8.70Q19.26-8.70 20.45-10.37L20.45-10.37L20.45-10.37Q21.63-12.03 22.21-14.91L22.21-14.91L25.73-32.64L38.34-33.92L33.54-8.77L33.54-8.77Q31.17 3.52 26.30 8.38L26.30 8.38L26.30 8.38Q23.81 10.88 20.58 11.87L20.58 11.87L20.58 11.87Q17.34 12.86 13.18 12.86L13.18 12.86L13.18 12.86Q6.46 12.86 2.62 10.75L2.62 10.75L2.62 10.75Q-1.22 8.64-1.22 5.12L-1.22 5.12L-1.22 5.12Q-1.22 2.50 0.77 0.99L0.77 0.99L0.77 0.99Q2.75-0.51 5.82-0.51L5.82-0.51L5.82-0.51Q8.51-0.51 10.56 0.64L10.56 0.64L10.56 0.64Q11.78 1.34 12.35 2.24L12.35 2.24L12.35 2.24Q10.88 3.52 10.88 5.63L10.88 5.63L10.88 5.63Q10.88 8.45 13.44 8.45L13.44 8.45L13.44 8.45Q17.66 8.45 20.10-1.28L20.10-1.28L20.10-1.28Q20.80-4.16 21.44-7.23ZM66.56-10.82L66.56-10.82L66.56-10.82Q68.16-9.73 68.16-7.33L68.16-7.33L68.16-7.33Q68.16-4.93 66.94-3.39L66.94-3.39L66.94-3.39Q65.73-1.86 63.74-0.83L63.74-0.83L63.74-0.83Q59.65 1.28 55.23 1.28L55.23 1.28L55.23 1.28Q50.82 1.28 48.22 0.32L48.22 0.32L48.22 0.32Q45.63-0.64 43.90-2.43L43.90-2.43L43.90-2.43Q40.51-5.82 40.51-12.03L40.51-12.03L40.51-12.03Q40.51-21.70 45.76-27.58L45.76-27.58L45.76-27.58Q51.39-33.92 61.18-33.92L61.18-33.92L61.18-33.92Q67.26-33.92 70.27-31.36L70.27-31.36L70.27-31.36Q72.51-29.44 72.51-26.30L72.51-26.30L72.51-26.30Q72.51-15.04 53.06-15.04L53.06-15.04L53.06-15.04Q52.80-13.38 52.80-11.97L52.80-11.97L52.80-11.97Q52.80-9.02 54.11-7.90L54.11-7.90L54.11-7.90Q55.42-6.78 57.86-6.78L57.86-6.78L57.86-6.78Q60.29-6.78 62.88-7.90L62.88-7.90L62.88-7.90Q65.47-9.02 66.56-10.82ZM53.50-17.79L53.50-17.79L53.50-17.79Q58.05-17.79 60.67-20.61L60.67-20.61L60.67-20.61Q63.30-23.30 63.30-27.58L63.30-27.58L63.30-27.58Q63.30-29.06 62.75-29.86L62.75-29.86L62.75-29.86Q62.21-30.66 61.12-30.66L61.12-30.66L61.12-30.66Q60.03-30.66 59.10-30.24L59.10-30.24L59.10-30.24Q58.18-29.82 57.22-28.42L57.22-28.42L57.22-28.42Q54.85-25.22 53.50-17.79ZM99.65-37.12L99.65-37.12L99.65-37.12Q100.54-38.66 100.54-40.32L100.54-40.32L100.54-40.32Q100.54-43.26 98.75-43.26L98.75-43.26L98.75-43.26Q96-43.26 94.85-37.63L94.85-37.63L93.89-32.64L99.71-32.64L99.33-29.76L93.31-29.76L87.55 0L74.62 1.28L80.77-29.76L76.22-29.76L76.80-32.64L81.28-32.64L82.62-37.70L82.62-37.70Q83.78-42.37 88.70-44.54L88.70-44.54L88.70-44.54Q92.29-46.08 98.30-46.08L98.30-46.08L98.30-46.08Q104.32-46.08 107.01-44.54L107.01-44.54L107.01-44.54Q109.70-43.01 109.70-40.96L109.70-40.96L109.70-40.96Q109.70-38.91 108.10-37.63L108.10-37.63L108.10-37.63Q106.50-36.35 104.70-36.35L104.70-36.35L104.70-36.35Q101.18-36.35 99.65-37.12ZM114.43-3.52L114.43-3.52L114.43-3.52Q112.45 1.28 106.11 1.28L106.11 1.28L106.11 1.28Q102.91 1.28 100.86-0.96L100.86-0.96L100.86-0.96Q99.20-2.82 99.20-4.93L99.20-4.93L99.20-4.93Q99.20-9.73 101.44-20.22L101.44-20.22L106.11-44.80L119.10-46.08L112.90-13.70L112.90-13.70Q111.81-8.96 111.81-7.30L111.81-7.30L111.81-7.30Q111.81-3.65 114.43-3.52ZM135.23-3.52L135.23-3.52L135.23-3.52Q133.25 1.28 126.91 1.28L126.91 1.28L126.91 1.28Q123.65 1.28 121.60-0.96L121.60-0.96L121.60-0.96Q119.87-2.94 119.87-4.93L119.87-4.93L119.87-4.93Q119.87-10.11 122.24-20.22L122.24-20.22L124.61-32.64L137.60-33.92L133.70-13.70L133.70-13.70Q132.61-8.96 132.61-7.30L132.61-7.30L132.61-7.30Q132.61-3.65 135.23-3.52ZM125.76-41.54L125.76-41.54L125.76-41.54Q125.76-44.03 127.84-45.38L127.84-45.38L127.84-45.38Q129.92-46.72 132.93-46.72L132.93-46.72L132.93-46.72Q135.94-46.72 137.76-45.38L137.76-45.38L137.76-45.38Q139.58-44.03 139.58-41.54L139.58-41.54L139.58-41.54Q139.58-39.04 137.57-37.76L137.57-37.76L137.57-37.76Q135.55-36.48 132.54-36.48L132.54-36.48L132.54-36.48Q129.54-36.48 127.65-37.76L127.65-37.76L127.65-37.76Q125.76-39.04 125.76-41.54ZM149.18 0.19L149.18 0.19L149.18 0.19Q147.14 1.28 144.32 1.28L144.32 1.28L144.32 1.28Q141.50 1.28 139.97-0.16L139.97-0.16L139.97-0.16Q138.43-1.60 138.43-4.38L138.43-4.38L138.43-4.38Q138.43-7.17 140.38-9.89L140.38-9.89L140.38-9.89Q142.34-12.61 145.25-14.14L145.25-14.14L145.25-14.14Q148.16-15.68 150.21-16.58L150.21-16.58L146.18-25.86L146.18-25.86Q145.09-28.22 143.04-28.22L143.04-28.22L142.53-28.16L142.34-28.16L142.34-28.16Q142.72-30.40 145.34-32.13L145.34-32.13L145.34-32.13Q147.97-33.92 150.98-33.92L150.98-33.92L150.98-33.92Q155.84-33.92 158.08-29.06L158.08-29.06L158.59-28.03L161.34-21.25L161.34-21.25Q163.07-22.02 163.81-23.46L163.81-23.46L163.81-23.46Q164.54-24.90 164.54-27.74L164.54-27.74L164.54-27.74Q164.54-30.59 163.01-32.38L163.01-32.38L163.01-32.38Q165.44-33.92 168.64-33.92L168.64-33.92L168.64-33.92Q174.40-33.92 174.40-28.35L174.40-28.35L174.40-28.35Q174.40-22.27 166.78-18.75L166.78-18.75L162.94-16.96L166.40-8.06L166.40-8.06Q167.42-5.38 169.28-4.22L169.28-4.22L169.28-4.22Q170.05-3.71 170.94-3.65L170.94-3.65L170.94-3.65Q169.02-0.51 164.86 0.90L164.86 0.90L164.86 0.90Q163.58 1.28 161.86 1.28L161.86 1.28L161.86 1.28Q160.13 1.28 158.14 0.10L158.14 0.10L158.14 0.10Q156.16-1.09 155.46-2.94L155.46-2.94L151.94-12.10L151.94-12.10Q148.35-10.50 148.35-4.67L148.35-4.67L148.35-4.67Q148.35-1.98 149.18 0.19Z" fill="url(#editing-shiny-gradient)"></path></g></g><g filter="url(#editing-shiny2)"><g transform="translate(162.68343997001648, 104.79000091552734)"><path d="M21.44-7.23L21.44-7.23L21.44-7.23Q18.11-3.78 12.03-3.78L12.03-3.78L12.03-3.78Q4.42-3.78 2.82-9.34L2.82-9.34L2.82-9.34Q2.30-11.01 2.30-12.86L2.30-12.86L2.30-12.86Q2.30-14.72 2.69-16.64L2.69-16.64L5.70-32.64L18.69-33.92L15.17-15.30L15.17-15.30Q15.04-14.46 14.85-13.57L14.85-13.57L14.85-13.57Q14.66-12.67 14.66-11.74L14.66-11.74L14.66-11.74Q14.66-10.82 14.98-10.21L14.98-10.21L14.98-10.21Q15.30-9.60 15.74-9.22L15.74-9.22L15.74-9.22Q16.51-8.70 17.89-8.70L17.89-8.70L17.89-8.70Q19.26-8.70 20.45-10.37L20.45-10.37L20.45-10.37Q21.63-12.03 22.21-14.91L22.21-14.91L25.73-32.64L38.34-33.92L33.54-8.77L33.54-8.77Q31.17 3.52 26.30 8.38L26.30 8.38L26.30 8.38Q23.81 10.88 20.58 11.87L20.58 11.87L20.58 11.87Q17.34 12.86 13.18 12.86L13.18 12.86L13.18 12.86Q6.46 12.86 2.62 10.75L2.62 10.75L2.62 10.75Q-1.22 8.64-1.22 5.12L-1.22 5.12L-1.22 5.12Q-1.22 2.50 0.77 0.99L0.77 0.99L0.77 0.99Q2.75-0.51 5.82-0.51L5.82-0.51L5.82-0.51Q8.51-0.51 10.56 0.64L10.56 0.64L10.56 0.64Q11.78 1.34 12.35 2.24L12.35 2.24L12.35 2.24Q10.88 3.52 10.88 5.63L10.88 5.63L10.88 5.63Q10.88 8.45 13.44 8.45L13.44 8.45L13.44 8.45Q17.66 8.45 20.10-1.28L20.10-1.28L20.10-1.28Q20.80-4.16 21.44-7.23ZM66.56-10.82L66.56-10.82L66.56-10.82Q68.16-9.73 68.16-7.33L68.16-7.33L68.16-7.33Q68.16-4.93 66.94-3.39L66.94-3.39L66.94-3.39Q65.73-1.86 63.74-0.83L63.74-0.83L63.74-0.83Q59.65 1.28 55.23 1.28L55.23 1.28L55.23 1.28Q50.82 1.28 48.22 0.32L48.22 0.32L48.22 0.32Q45.63-0.64 43.90-2.43L43.90-2.43L43.90-2.43Q40.51-5.82 40.51-12.03L40.51-12.03L40.51-12.03Q40.51-21.70 45.76-27.58L45.76-27.58L45.76-27.58Q51.39-33.92 61.18-33.92L61.18-33.92L61.18-33.92Q67.26-33.92 70.27-31.36L70.27-31.36L70.27-31.36Q72.51-29.44 72.51-26.30L72.51-26.30L72.51-26.30Q72.51-15.04 53.06-15.04L53.06-15.04L53.06-15.04Q52.80-13.38 52.80-11.97L52.80-11.97L52.80-11.97Q52.80-9.02 54.11-7.90L54.11-7.90L54.11-7.90Q55.42-6.78 57.86-6.78L57.86-6.78L57.86-6.78Q60.29-6.78 62.88-7.90L62.88-7.90L62.88-7.90Q65.47-9.02 66.56-10.82ZM53.50-17.79L53.50-17.79L53.50-17.79Q58.05-17.79 60.67-20.61L60.67-20.61L60.67-20.61Q63.30-23.30 63.30-27.58L63.30-27.58L63.30-27.58Q63.30-29.06 62.75-29.86L62.75-29.86L62.75-29.86Q62.21-30.66 61.12-30.66L61.12-30.66L61.12-30.66Q60.03-30.66 59.10-30.24L59.10-30.24L59.10-30.24Q58.18-29.82 57.22-28.42L57.22-28.42L57.22-28.42Q54.85-25.22 53.50-17.79ZM99.65-37.12L99.65-37.12L99.65-37.12Q100.54-38.66 100.54-40.32L100.54-40.32L100.54-40.32Q100.54-43.26 98.75-43.26L98.75-43.26L98.75-43.26Q96-43.26 94.85-37.63L94.85-37.63L93.89-32.64L99.71-32.64L99.33-29.76L93.31-29.76L87.55 0L74.62 1.28L80.77-29.76L76.22-29.76L76.80-32.64L81.28-32.64L82.62-37.70L82.62-37.70Q83.78-42.37 88.70-44.54L88.70-44.54L88.70-44.54Q92.29-46.08 98.30-46.08L98.30-46.08L98.30-46.08Q104.32-46.08 107.01-44.54L107.01-44.54L107.01-44.54Q109.70-43.01 109.70-40.96L109.70-40.96L109.70-40.96Q109.70-38.91 108.10-37.63L108.10-37.63L108.10-37.63Q106.50-36.35 104.70-36.35L104.70-36.35L104.70-36.35Q101.18-36.35 99.65-37.12ZM114.43-3.52L114.43-3.52L114.43-3.52Q112.45 1.28 106.11 1.28L106.11 1.28L106.11 1.28Q102.91 1.28 100.86-0.96L100.86-0.96L100.86-0.96Q99.20-2.82 99.20-4.93L99.20-4.93L99.20-4.93Q99.20-9.73 101.44-20.22L101.44-20.22L106.11-44.80L119.10-46.08L112.90-13.70L112.90-13.70Q111.81-8.96 111.81-7.30L111.81-7.30L111.81-7.30Q111.81-3.65 114.43-3.52ZM135.23-3.52L135.23-3.52L135.23-3.52Q133.25 1.28 126.91 1.28L126.91 1.28L126.91 1.28Q123.65 1.28 121.60-0.96L121.60-0.96L121.60-0.96Q119.87-2.94 119.87-4.93L119.87-4.93L119.87-4.93Q119.87-10.11 122.24-20.22L122.24-20.22L124.61-32.64L137.60-33.92L133.70-13.70L133.70-13.70Q132.61-8.96 132.61-7.30L132.61-7.30L132.61-7.30Q132.61-3.65 135.23-3.52ZM125.76-41.54L125.76-41.54L125.76-41.54Q125.76-44.03 127.84-45.38L127.84-45.38L127.84-45.38Q129.92-46.72 132.93-46.72L132.93-46.72L132.93-46.72Q135.94-46.72 137.76-45.38L137.76-45.38L137.76-45.38Q139.58-44.03 139.58-41.54L139.58-41.54L139.58-41.54Q139.58-39.04 137.57-37.76L137.57-37.76L137.57-37.76Q135.55-36.48 132.54-36.48L132.54-36.48L132.54-36.48Q129.54-36.48 127.65-37.76L127.65-37.76L127.65-37.76Q125.76-39.04 125.76-41.54ZM149.18 0.19L149.18 0.19L149.18 0.19Q147.14 1.28 144.32 1.28L144.32 1.28L144.32 1.28Q141.50 1.28 139.97-0.16L139.97-0.16L139.97-0.16Q138.43-1.60 138.43-4.38L138.43-4.38L138.43-4.38Q138.43-7.17 140.38-9.89L140.38-9.89L140.38-9.89Q142.34-12.61 145.25-14.14L145.25-14.14L145.25-14.14Q148.16-15.68 150.21-16.58L150.21-16.58L146.18-25.86L146.18-25.86Q145.09-28.22 143.04-28.22L143.04-28.22L142.53-28.16L142.34-28.16L142.34-28.16Q142.72-30.40 145.34-32.13L145.34-32.13L145.34-32.13Q147.97-33.92 150.98-33.92L150.98-33.92L150.98-33.92Q155.84-33.92 158.08-29.06L158.08-29.06L158.59-28.03L161.34-21.25L161.34-21.25Q163.07-22.02 163.81-23.46L163.81-23.46L163.81-23.46Q164.54-24.90 164.54-27.74L164.54-27.74L164.54-27.74Q164.54-30.59 163.01-32.38L163.01-32.38L163.01-32.38Q165.44-33.92 168.64-33.92L168.64-33.92L168.64-33.92Q174.40-33.92 174.40-28.35L174.40-28.35L174.40-28.35Q174.40-22.27 166.78-18.75L166.78-18.75L162.94-16.96L166.40-8.06L166.40-8.06Q167.42-5.38 169.28-4.22L169.28-4.22L169.28-4.22Q170.05-3.71 170.94-3.65L170.94-3.65L170.94-3.65Q169.02-0.51 164.86 0.90L164.86 0.90L164.86 0.90Q163.58 1.28 161.86 1.28L161.86 1.28L161.86 1.28Q160.13 1.28 158.14 0.10L158.14 0.10L158.14 0.10Q156.16-1.09 155.46-2.94L155.46-2.94L151.94-12.10L151.94-12.10Q148.35-10.50 148.35-4.67L148.35-4.67L148.35-4.67Q148.35-1.98 149.18 0.19Z" fill="url(#editing-shiny-gradient2)"></path></g></g><style>text {
  font-size: 64px;
  font-family: Arial Black;
  dominant-baseline: central;
  text-anchor: middle;
}</style></svg>